<?xml version="1.0" encoding="iso-8859-1"?>
<svg version="1.1" id="Layer_1" xmlns="http://www.w3.org/2000/svg" xmlns:xlink="http://www.w3.org/1999/xlink" x="0px" y="0px"
     viewBox="0 0 512.001 512.001" style="enable-background:new 0 0 512.001 512.001;" xml:space="preserve">
    <defs>
        <linearGradient id="holographic" x1="0%" y1="0%" x2="100%" y2="100%">
            <stop offset="0%" stop-color="#ff00ff" stop-opacity="0.8">
                <animate attributeName="stop-color" 
                    values="#ff00ff;#00ffff;#ffff00;#ff00ff"
                    dur="3s" repeatCount="indefinite"/>
            </stop>
            <stop offset="100%" stop-color="#00ffff" stop-opacity="0.8">
                <animate attributeName="stop-color" 
                    values="#00ffff;#ffff00;#ff00ff;#00ffff"
                    dur="3s" repeatCount="indefinite"/>
            </stop>
        </linearGradient>
        <filter id="blur">
            <feGaussianBlur stdDeviation="1" />
        </filter>
    </defs>
    <g>
        <g>
            <path fill="url(#holographic)" filter="url(#blur)" d="M426.667,0H85.334C73.552,0,64,9.552,64,21.334v469.333C64,502.449,73.552,512,85.334,512h341.333
                c11.782,0,21.333-9.551,21.333-21.333V21.334C448,9.552,438.449,0,426.667,0z M182.326,469.334l223.007-207.078v69.398
                l-157.349,137.68H182.326z M405.334,96.987L106.667,358.32v-50.35L392.378,42.667h12.956V96.987z M329.674,42.667L106.667,249.745
                v-69.398l157.349-137.68H329.674z M199.223,42.667l-92.556,80.986V42.667H199.223z M106.667,415.014l298.667-261.333v50.35
                L119.623,469.334h-12.956V415.014z M312.778,469.334l92.556-80.986v80.986H312.778z"/>
        </g>
    </g>
</svg>